<svg xmlns="http://www.w3.org/2000/svg" viewBox="0 0 148 115"><path fill="#0c142c" d="M0 57.506v57.507l74.25-.257 74.25-.256.258-57.25.258-57.25H0v57.506M.468 58c0 31.625.127 44.562.281 28.75.155-15.813.155-41.688 0-57.5C.595 13.437.468 26.375.468 58m75.705-19.75c.377 26.201.997 28.727 8.457 34.417 6.98 5.324 20.852 4.402 27.203-1.808L115 67.763V75h20V15h-20V54.847l-2.589 3.076c-2.061 2.45-3.37 3.077-6.418 3.077C96.678 61 96 59.206 96 34.55V15H75.839l.334 23.25M19 88.5V92h52v-7H19v3.5" fill-rule="evenodd"/></svg>